# xmcd CD database file
#
# Track frame offsets:
#	225
#	13806
#	28303
#	43463
#	60719
#	73562
#	89376
#	102529
#	117040
#	126295
#	138052
#	154857
#	164153
#	177069
#	190032
#	203074
#	216372
#	228651
#
# Disc length: 3225 seconds
#
# Revision: 2
# Processed by: cddbd v1.4b41PL1 Copyright (c) Steve Scherf et al.
# Submitted via: Feurio! 1.50.2ß - http://www.feurio.com
#
DISCID=0d0c9612
DTITLE=Glenn Miller - Volume 2
DYEAR=1900
DGENRE=
TTITLE0=I Know Why
TTITLE1=Flyin' Home
TTITLE2=Perfidia
TTITLE3=St. Louis Blues
TTITLE4=Blueberry Hill
TTITLE5=Skylark
TTITLE6=Adios
TTITLE7=Don't Sit Under The Apple Tree
TTITLE8=Anchor's Awaigh
TTITLE9=My Baby
TTITLE10=I Got Rhythm
TTITLE11=I Dream Of Jeannie
TTITLE12=Wishing
TTITLE13=Stairway To The Stars
TTITLE14=Moon Love
TTITLE15=Limehouse Blues
TTITLE16=On The Alamo
TTITLE17=Oh,Brave Army Team
EXTD=Eigentümer Daniel Perlick
EXTT0=
EXTT1=
EXTT2=
EXTT3=
EXTT4=
EXTT5=
EXTT6=
EXTT7=
EXTT8=
EXTT9=
EXTT10=
EXTT11=
EXTT12=
EXTT13=
EXTT14=
EXTT15=
EXTT16=
EXTT17=
PLAYORDER=
